<?xml version="1.0" encoding="UTF-8"?>
<svg version="1.1" viewBox="0 0 412.87 412.87" xmlns="http://www.w3.org/2000/svg" xmlns-cc="http://creativecommons.org/ns#" xmlns-dc="http://purl.org/dc/elements/1.1/" xmlns-rdf="http://www.w3.org/1999/02/22-rdf-syntax-ns#" xmlnsXlink="http://www.w3.org/1999/xlink">

<g transform="translate(-10.592 -65.862)">
<path d="m217.02 260.74v23.101" strokeWidth=".5"/>
<path d="m228.58 272.3h-23.101" strokeWidth=".5"/>
<path transform="translate(19.882 -34.353)" d="m402.86 306.65c0 113.61-92.101 205.71-205.71 205.71-113.61 0-205.71-92.101-205.71-205.71s92.101-205.71 205.71-205.71c113.61 0 205.71 92.101 205.71 205.71z" />
<g transform="translate(530.68 61.775)">
<use transform="matrix(-.17365 -.98481 .98481 -.17365 -575.44 -61.809)" width="744.09448" height="1052.3622" xlinkHref="#c"/>
<use transform="matrix(0 -1 1 0 -524.17 -103.13)" width="744.09448" height="1052.3622" xlinkHref="#c"/>
<use transform="matrix(.17365 -.98481 .98481 .17365 -466.51 -134.92)" width="744.09448" height="1052.3622" xlinkHref="#c"/>
<path id="c" d="m-313.65 196.91v-134.33m0-27.875v-29.897" stroke-miterlimit="10"/>
<use transform="matrix(.98481 .17365 -.17365 .98481 31.791 57.663)" width="744.09448" height="1052.3622" xlinkHref="#c"/>
<use transform="matrix(.93969 .34202 -.34202 .93969 53.087 119.97)" width="744.09448" height="1052.3622" xlinkHref="#c"/>
<use transform="matrix(.86603 .5 -.5 .86603 63.239 185.03)" width="744.09448" height="1052.3622" xlinkHref="#c"/>
<use transform="matrix(.76604 .64279 -.64279 .76604 61.939 250.86)" width="744.09448" height="1052.3622" xlinkHref="#c"/>
<use transform="matrix(.64279 .76604 -.76604 .64279 49.228 315.47)" width="744.09448" height="1052.3622" xlinkHref="#c"/>
<use transform="matrix(.5 .86603 -.86603 .5 25.49 376.89)" width="744.09448" height="1052.3622" xlinkHref="#c"/>
<use transform="matrix(.34202 .93969 -.93969 .34202 -8.5517 433.25)" width="744.09448" height="1052.3622" xlinkHref="#c"/>
<use transform="matrix(.17365 .98481 -.98481 .17365 -51.864 482.85)" width="744.09448" height="1052.3622" xlinkHref="#c"/>
<use transform="matrix(0 1 -1 0 -103.13 524.17)" width="744.09448" height="1052.3622" xlinkHref="#c"/>
<use transform="matrix(-.17365 .98481 -.98481 -.17365 -160.79 555.96)" width="744.09448" height="1052.3622" xlinkHref="#c"/>
<use transform="matrix(-.34202 .93969 -.93969 -.34202 -223.1 577.26)" width="744.09448" height="1052.3622" xlinkHref="#c"/>
<use transform="matrix(-.5 .86603 -.86603 -.5 -288.16 587.41)" width="744.09448" height="1052.3622" xlinkHref="#c"/>
<use transform="matrix(-.64279 .76604 -.76604 -.64279 -353.99 586.11)" width="744.09448" height="1052.3622" xlinkHref="#c"/>
<use transform="matrix(-.76604 .64279 -.64279 -.76604 -418.6 573.4)" width="744.09448" height="1052.3622" xlinkHref="#c"/>
<use transform="matrix(-.86603 .5 -.5 -.86603 -480.02 549.66)" width="744.09448" height="1052.3622" xlinkHref="#c"/>
<use transform="matrix(-.93969 .34202 -.34202 -.93969 -536.38 515.62)" width="744.09448" height="1052.3622" xlinkHref="#c"/>
<use transform="matrix(-.98481 .17365 -.17365 -.98481 -585.98 472.31)" width="744.09448" height="1052.3622" xlinkHref="#c"/>
<use transform="matrix(-1 0 0 -1 -627.3 421.04)" width="744.09448" height="1052.3622" xlinkHref="#c"/>
<use transform="matrix(-.98481 -.17365 .17365 -.98481 -659.09 363.38)" width="744.09448" height="1052.3622" xlinkHref="#c"/>
<use transform="matrix(-.93969 -.34202 .34202 -.93969 -680.39 301.07)" width="744.09448" height="1052.3622" xlinkHref="#c"/>
<use transform="matrix(-.86603 -.5 .5 -.86603 -690.54 236.01)" width="744.09448" height="1052.3622" xlinkHref="#c"/>
<use transform="matrix(-.76604 -.64279 .64279 -.76604 -689.24 170.18)" width="744.09448" height="1052.3622" xlinkHref="#c"/>
<use transform="matrix(-.64279 -.76604 .76604 -.64279 -676.53 105.57)" width="744.09448" height="1052.3622" xlinkHref="#c"/>
<use transform="matrix(-.5 -.86603 .86603 -.5 -652.79 44.15)" width="744.09448" height="1052.3622" xlinkHref="#c"/>
<use transform="matrix(-.34202 -.93969 .93969 -.34202 -618.75 -12.213)" width="744.09448" height="1052.3622" xlinkHref="#c"/>
<use transform="matrix(.34202 -.93969 .93969 .34202 -404.2 -156.22)" width="744.09448" height="1052.3622" xlinkHref="#c"/>
<use transform="matrix(.5 -.86603 .86603 .5 -339.14 -166.37)" width="744.09448" height="1052.3622" xlinkHref="#c"/>
<use transform="matrix(.64279 -.76604 .76604 .64279 -273.31 -165.07)" width="744.09448" height="1052.3622" xlinkHref="#c"/>
<use transform="matrix(.76604 -.64279 .64279 .76604 -208.7 -152.36)" width="744.09448" height="1052.3622" xlinkHref="#c"/>
<use transform="matrix(.86603 -.5 .5 .86603 -147.28 -128.62)" width="744.09448" height="1052.3622" xlinkHref="#c"/>
<use transform="matrix(.93969 -.34202 .34202 .93969 -90.917 -94.579)" width="744.09448" height="1052.3622" xlinkHref="#c"/>
<use transform="matrix(.98481 -.17365 .17365 .98481 -41.321 -51.267)" width="744.09448" height="1052.3622" xlinkHref="#c"/>
</g>
<g transform="translate(-377.25 437.37)">
<path id="b" d="m594.27-268.4v-15.357m0-72.143v-15.357" strokeMiterlimit="10" strokeWidth=".5"/>
<use transform="matrix(.99619 .087156 -.087156 .99619 -12.126 -52.423)" width="744.09448" height="1052.3622" xlinkHref="#b"/>
<use transform="matrix(.98481 .17365 -.17365 .98481 -19.637 -105.7)" width="744.09448" height="1052.3622" xlinkHref="#b"/>
<use transform="matrix(.96593 .25882 -.25882 .96593 -22.476 -159.43)" width="744.09448" height="1052.3622" xlinkHref="#b"/>
<use transform="matrix(.93969 .34202 -.34202 .93969 -20.621 -213.21)" width="744.09448" height="1052.3622" xlinkHref="#b"/>
<use transform="matrix(.90631 .42262 -.42262 .90631 -14.086 -266.62)" width="744.09448" height="1052.3622" xlinkHref="#b"/>
<use transform="matrix(.86603 .5 -.5 .86603 -2.9213 -319.25)" width="744.09448" height="1052.3622" xlinkHref="#b"/>
<use transform="matrix(.81915 .57358 -.57358 .81915 12.789 -370.72)" width="744.09448" height="1052.3622" xlinkHref="#b"/>
<use transform="matrix(.76604 .64279 -.64279 .76604 32.924 -420.61)" width="744.09448" height="1052.3622" xlinkHref="#b"/>
<use transform="matrix(.70711 .70711 -.70711 .70711 57.331 -468.57)" width="744.09448" height="1052.3622" xlinkHref="#b"/>
<use transform="matrix(.64279 .76604 -.76604 .64279 85.825 -514.21)" width="744.09448" height="1052.3622" xlinkHref="#b"/>
<use transform="matrix(.57358 .81915 -.81915 .57358 118.19 -557.19)" width="744.09448" height="1052.3622" xlinkHref="#b"/>
<use transform="matrix(.5 .86603 -.86603 .5 154.18 -597.2)" width="744.09448" height="1052.3622" xlinkHref="#b"/>
<use transform="matrix(.42262 .90631 -.90631 .42262 193.51 -633.91)" width="744.09448" height="1052.3622" xlinkHref="#b"/>
<use transform="matrix(.34202 .93969 -.93969 .34202 235.9 -667.05)" width="744.09448" height="1052.3622" xlinkHref="#b"/>
<use transform="matrix(.25882 .96593 -.96593 .25882 281.01 -696.38)" width="744.09448" height="1052.3622" xlinkHref="#b"/>
<use transform="matrix(.17365 .98481 -.98481 .17365 328.51 -721.66)" width="744.09448" height="1052.3622" xlinkHref="#b"/>
<use transform="matrix(.087156 .99619 -.99619 .087156 378.03 -742.7)" width="744.09448" height="1052.3622" xlinkHref="#b"/>
<use transform="matrix(0 1 -1 0 429.2 -759.35)" width="744.09448" height="1052.3622" xlinkHref="#b"/>
<use transform="matrix(-.087156 .99619 -.99619 -.087156 481.62 -771.48)" width="744.09448" height="1052.3622" xlinkHref="#b"/>
<use transform="matrix(-.17365 .98481 -.98481 -.17365 534.9 -778.99)" width="744.09448" height="1052.3622" xlinkHref="#b"/>
<use transform="matrix(-.25882 .96593 -.96593 -.25882 588.63 -781.83)" width="744.09448" height="1052.3622" xlinkHref="#b"/>
<use transform="matrix(-.34202 .93969 -.93969 -.34202 642.41 -779.97)" width="744.09448" height="1052.3622" xlinkHref="#b"/>
<use transform="matrix(-.42262 .90631 -.90631 -.42262 695.81 -773.44)" width="744.09448" height="1052.3622" xlinkHref="#b"/>
<use transform="matrix(-.5 .86603 -.86603 -.5 748.45 -762.27)" width="744.09448" height="1052.3622" xlinkHref="#b"/>
<use transform="matrix(-.57358 .81915 -.81915 -.57358 799.91 -746.56)" width="744.09448" height="1052.3622" xlinkHref="#b"/>
<use transform="matrix(-.64279 .76604 -.76604 -.64279 849.81 -726.43)" width="744.09448" height="1052.3622" xlinkHref="#b"/>
<use transform="matrix(-.70711 .70711 -.70711 -.70711 897.76 -702.02)" width="744.09448" height="1052.3622" xlinkHref="#b"/>
<use transform="matrix(-.76604 .64279 -.64279 -.76604 943.41 -673.53)" width="744.09448" height="1052.3622" xlinkHref="#b"/>
<use transform="matrix(-.81915 .57358 -.57358 -.81915 986.39 -641.16)" width="744.09448" height="1052.3622" xlinkHref="#b"/>
<use transform="matrix(-.86603 .5 -.5 -.86603 1026.4 -605.18)" width="744.09448" height="1052.3622" xlinkHref="#b"/>
<use transform="matrix(-.90631 .42262 -.42262 -.90631 1063.1 -565.84)" width="744.09448" height="1052.3622" xlinkHref="#b"/>
<use transform="matrix(-.93969 .34202 -.34202 -.93969 1096.3 -523.45)" width="744.09448" height="1052.3622" xlinkHref="#b"/>
<use transform="matrix(-.96593 .25882 -.25882 -.96593 1125.6 -478.34)" width="744.09448" height="1052.3622" xlinkHref="#b"/>
<use transform="matrix(-.98481 .17365 -.17365 -.98481 1150.9 -430.84)" width="744.09448" height="1052.3622" xlinkHref="#b"/>
<use transform="matrix(-.99619 .087156 -.087156 -.99619 1171.9 -381.32)" width="744.09448" height="1052.3622" xlinkHref="#b"/>
<use transform="matrix(-1 0 0 -1 1188.5 -330.16)" width="744.09448" height="1052.3622" xlinkHref="#b"/>
<use transform="matrix(-.99619 -.087156 .087156 -.99619 1200.7 -277.73)" width="744.09448" height="1052.3622" xlinkHref="#b"/>
<use transform="matrix(-.98481 -.17365 .17365 -.98481 1208.2 -224.45)" width="744.09448" height="1052.3622" xlinkHref="#b"/>
<use transform="matrix(-.96593 -.25882 .25882 -.96593 1211 -170.72)" width="744.09448" height="1052.3622" xlinkHref="#b"/>
<use transform="matrix(-.93969 -.34202 .34202 -.93969 1209.2 -116.95)" width="744.09448" height="1052.3622" xlinkHref="#b"/>
<use transform="matrix(-.90631 -.42262 .42262 -.90631 1202.6 -63.538)" width="744.09448" height="1052.3622" xlinkHref="#b"/>
<use transform="matrix(-.86603 -.5 .5 -.86603 1191.5 -10.902)" width="744.09448" height="1052.3622" xlinkHref="#b"/>
<use transform="matrix(-.81915 -.57358 .57358 -.81915 1175.8 40.56)" width="744.09448" height="1052.3622" xlinkHref="#b"/>
<use transform="matrix(-.76604 -.64279 .64279 -.76604 1155.6 90.457)" width="744.09448" height="1052.3622" xlinkHref="#b"/>
<use transform="matrix(-.70711 -.70711 .70711 -.70711 1131.2 138.41)" width="744.09448" height="1052.3622" xlinkHref="#b"/>
<use transform="matrix(-.64279 -.76604 .76604 -.64279 1102.7 184.05)" width="744.09448" height="1052.3622" xlinkHref="#b"/>
<use transform="matrix(-.57358 -.81915 .81915 -.57358 1070.4 227.04)" width="744.09448" height="1052.3622" xlinkHref="#b"/>
<use transform="matrix(-.5 -.86603 .86603 -.5 1034.4 267.04)" width="744.09448" height="1052.3622" xlinkHref="#b"/>
<use transform="matrix(-.42262 -.90631 .90631 -.42262 995.04 303.75)" width="744.09448" height="1052.3622" xlinkHref="#b"/>
<use transform="matrix(-.34202 -.93969 .93969 -.34202 952.65 336.9)" width="744.09448" height="1052.3622" xlinkHref="#b"/>
<use transform="matrix(-.25882 -.96593 .96593 -.25882 907.54 366.22)" width="744.09448" height="1052.3622" xlinkHref="#b"/>
<use transform="matrix(-.17365 -.98481 .98481 -.17365 860.04 391.5)" width="744.09448" height="1052.3622" xlinkHref="#b"/>
<use transform="matrix(-.087156 -.99619 .99619 -.087156 810.52 412.55)" width="744.09448" height="1052.3622" xlinkHref="#b"/>
<use transform="matrix(0 -1 1 0 759.35 429.2)" width="744.09448" height="1052.3622" xlinkHref="#b"/>
<use transform="matrix(.087156 -.99619 .99619 .087156 706.93 441.32)" width="744.09448" height="1052.3622" xlinkHref="#b"/>
<use transform="matrix(.17365 -.98481 .98481 .17365 653.65 448.83)" width="744.09448" height="1052.3622" xlinkHref="#b"/>
<use transform="matrix(.25882 -.96593 .96593 .25882 599.92 451.67)" width="744.09448" height="1052.3622" xlinkHref="#b"/>
<use transform="matrix(.34202 -.93969 .93969 .34202 546.14 449.82)" width="744.09448" height="1052.3622" xlinkHref="#b"/>
<use transform="matrix(.42262 -.90631 .90631 .42262 492.73 443.28)" width="744.09448" height="1052.3622" xlinkHref="#b"/>
<use transform="matrix(.5 -.86603 .86603 .5 440.1 432.12)" width="744.09448" height="1052.3622" xlinkHref="#b"/>
<use transform="matrix(.57358 -.81915 .81915 .57358 388.64 416.41)" width="744.09448" height="1052.3622" xlinkHref="#b"/>
<use transform="matrix(.64279 -.76604 .76604 .64279 338.74 396.27)" width="744.09448" height="1052.3622" xlinkHref="#b"/>
<use transform="matrix(.70711 -.70711 .70711 .70711 290.79 371.87)" width="744.09448" height="1052.3622" xlinkHref="#b"/>
<use transform="matrix(.76604 -.64279 .64279 .76604 245.14 343.37)" width="744.09448" height="1052.3622" xlinkHref="#b"/>
<use transform="matrix(.81915 -.57358 .57358 .81915 202.16 311.01)" width="744.09448" height="1052.3622" xlinkHref="#b"/>
<use transform="matrix(.86603 -.5 .5 .86603 162.16 275.02)" width="744.09448" height="1052.3622" xlinkHref="#b"/>
<use transform="matrix(.90631 -.42262 .42262 .90631 125.44 235.68)" width="744.09448" height="1052.3622" xlinkHref="#b"/>
<use transform="matrix(.93969 -.34202 .34202 .93969 92.299 193.3)" width="744.09448" height="1052.3622" xlinkHref="#b"/>
<use transform="matrix(.96593 -.25882 .25882 .96593 62.975 148.18)" width="744.09448" height="1052.3622" xlinkHref="#b"/>
<use transform="matrix(.98481 -.17365 .17365 .98481 37.694 100.69)" width="744.09448" height="1052.3622" xlinkHref="#b"/>
<use transform="matrix(.99619 -.087156 .087156 .99619 16.649 51.166)" width="744.09448" height="1052.3622" xlinkHref="#b"/>
</g>
<g transform="translate(-377.25 437.37)">
<path id="a" d="m594.27-273.31v-6.25m0-84.286v-7.3214" strokeMiterlimit="10" strokeWidth=".3"/>
<use transform="matrix(.99985 .017452 -.017452 .99985 -2.7905 -10.397)" width="744.09448" height="1052.3622" xlinkHref="#a"/>
<use transform="matrix(.99939 .0349 -.0349 .99939 -5.3991 -20.84)" width="744.09448" height="1052.3622" xlinkHref="#a"/>
<use transform="matrix(.99863 .052336 -.052336 .99863 -7.8251 -31.328)" width="744.09448" height="1052.3622" xlinkHref="#a"/>
<use transform="matrix(.99756 .069756 -.069756 .99756 -10.068 -41.857)" width="744.09448" height="1052.3622" xlinkHref="#a"/>
<use transform="matrix(.99619 .087156 -.087156 .99619 -12.126 -52.423)" width="744.09448" height="1052.3622" xlinkHref="#a"/>
<use transform="matrix(.99452 .10453 -.10453 .99452 -14 -63.023)" width="744.09448" height="1052.3622" xlinkHref="#a"/>
<use transform="matrix(.99255 .12187 -.12187 .99255 -15.688 -73.654)" width="744.09448" height="1052.3622" xlinkHref="#a"/>
<use transform="matrix(.99027 .13917 -.13917 .99027 -17.191 -84.314)" width="744.09448" height="1052.3622" xlinkHref="#a"/>
<use transform="matrix(.98769 .15643 -.15643 .98769 -18.507 -94.997)" width="744.09448" height="1052.3622" xlinkHref="#a"/>
<use transform="matrix(.98481 .17365 -.17365 .98481 -19.637 -105.7)" width="744.09448" height="1052.3622" xlinkHref="#a"/>
<use transform="matrix(.98163 .19081 -.19081 .98163 -20.58 -116.43)" width="744.09448" height="1052.3622" xlinkHref="#a"/>
<use transform="matrix(.97815 .20791 -.20791 .97815 -21.335 -127.16)" width="744.09448" height="1052.3622" xlinkHref="#a"/>
<use transform="matrix(.97437 .22495 -.22495 .97437 -21.903 -137.91)" width="744.09448" height="1052.3622" xlinkHref="#a"/>
<use transform="matrix(.9703 .24192 -.24192 .9703 -22.283 -148.67)" width="744.09448" height="1052.3622" xlinkHref="#a"/>
<use transform="matrix(.96593 .25882 -.25882 .96593 -22.476 -159.43)" width="744.09448" height="1052.3622" xlinkHref="#a"/>
<use transform="matrix(.96126 .27564 -.27564 .96126 -22.48 -170.2)" width="744.09448" height="1052.3622" xlinkHref="#a"/>
<use transform="matrix(.9563 .29237 -.29237 .9563 -22.297 -180.96)" width="744.09448" height="1052.3622" xlinkHref="#a"/>
<use transform="matrix(.95106 .30902 -.30902 .95106 -21.926 -191.72)" width="744.09448" height="1052.3622" xlinkHref="#a"/>
<use transform="matrix(.94552 .32557 -.32557 .94552 -21.367 -202.47)" width="744.09448" height="1052.3622" xlinkHref="#a"/>
<use transform="matrix(.93969 .34202 -.34202 .93969 -20.621 -213.21)" width="744.09448" height="1052.3622" xlinkHref="#a"/>
<use transform="matrix(.93358 .35837 -.35837 .93358 -19.687 -223.93)" width="744.09448" height="1052.3622" xlinkHref="#a"/>
<use transform="matrix(.92718 .37461 -.37461 .92718 -18.567 -234.64)" width="744.09448" height="1052.3622" xlinkHref="#a"/>
<use transform="matrix(.9205 .39073 -.39073 .9205 -17.259 -245.32)" width="744.09448" height="1052.3622" xlinkHref="#a"/>
<use transform="matrix(.91355 .40674 -.40674 .91355 -15.766 -255.99)" width="744.09448" height="1052.3622" xlinkHref="#a"/>
<use transform="matrix(.90631 .42262 -.42262 .90631 -14.086 -266.62)" width="744.09448" height="1052.3622" xlinkHref="#a"/>
<use transform="matrix(.89879 .43837 -.43837 .89879 -12.221 -277.22)" width="744.09448" height="1052.3622" xlinkHref="#a"/>
<use transform="matrix(.89101 .45399 -.45399 .89101 -10.172 -287.79)" width="744.09448" height="1052.3622" xlinkHref="#a"/>
<use transform="matrix(.88295 .46947 -.46947 .88295 -7.9381 -298.32)" width="744.09448" height="1052.3622" xlinkHref="#a"/>
<use transform="matrix(.87462 .48481 -.48481 .87462 -5.5211 -308.81)" width="744.09448" height="1052.3622" xlinkHref="#a"/>
<use transform="matrix(.86603 .5 -.5 .86603 -2.9213 -319.25)" width="744.09448" height="1052.3622" xlinkHref="#a"/>
<use transform="matrix(.85717 .51504 -.51504 .85717 -.1396 -329.65)" width="744.09448" height="1052.3622" xlinkHref="#a"/>
<use transform="matrix(.84805 .52992 -.52992 .84805 2.8232 -340)" width="744.09448" height="1052.3622" xlinkHref="#a"/>
<use transform="matrix(.83867 .54464 -.54464 .83867 5.9661 -350.3)" width="744.09448" height="1052.3622" xlinkHref="#a"/>
<use transform="matrix(.82904 .55919 -.55919 .82904 9.2882 -360.54)" width="744.09448" height="1052.3622" xlinkHref="#a"/>
<use transform="matrix(.81915 .57358 -.57358 .81915 12.789 -370.72)" width="744.09448" height="1052.3622" xlinkHref="#a"/>
<use transform="matrix(.80902 .58779 -.58779 .80902 16.466 -380.83)" width="744.09448" height="1052.3622" xlinkHref="#a"/>
<use transform="matrix(.79864 .60182 -.60182 .79864 20.319 -390.88)" width="744.09448" height="1052.3622" xlinkHref="#a"/>
<use transform="matrix(.78801 .61566 -.61566 .78801 24.348 -400.87)" width="744.09448" height="1052.3622" xlinkHref="#a"/>
<use transform="matrix(.77715 .62932 -.62932 .77715 28.55 -410.78)" width="744.09448" height="1052.3622" xlinkHref="#a"/>
<use transform="matrix(.76604 .64279 -.64279 .76604 32.924 -420.61)" width="744.09448" height="1052.3622" xlinkHref="#a"/>
<use transform="matrix(.75471 .65606 -.65606 .75471 37.469 -430.37)" width="744.09448" height="1052.3622" xlinkHref="#a"/>
<use transform="matrix(.74314 .66913 -.66913 .74314 42.184 -440.05)" width="744.09448" height="1052.3622" xlinkHref="#a"/>
<use transform="matrix(.73135 .682 -.682 .73135 47.067 -449.64)" width="744.09448" height="1052.3622" xlinkHref="#a"/>
<use transform="matrix(.71934 .69466 -.69466 .71934 52.116 -459.15)" width="744.09448" height="1052.3622" xlinkHref="#a"/>
<use transform="matrix(.70711 .70711 -.70711 .70711 57.331 -468.57)" width="744.09448" height="1052.3622" xlinkHref="#a"/>
<use transform="matrix(.69466 .71934 -.71934 .69466 62.71 -477.89)" width="744.09448" height="1052.3622" xlinkHref="#a"/>
<use transform="matrix(.682 .73135 -.73135 .682 68.25 -487.12)" width="744.09448" height="1052.3622" xlinkHref="#a"/>
<use transform="matrix(.66913 .74314 -.74314 .66913 73.95 -496.25)" width="744.09448" height="1052.3622" xlinkHref="#a"/>
<use transform="matrix(.65606 .75471 -.75471 .65606 79.809 -505.28)" width="744.09448" height="1052.3622" xlinkHref="#a"/>
<use transform="matrix(.64279 .76604 -.76604 .64279 85.825 -514.21)" width="744.09448" height="1052.3622" xlinkHref="#a"/>
<use transform="matrix(.62932 .77715 -.77715 .62932 91.996 -523.03)" width="744.09448" height="1052.3622" xlinkHref="#a"/>
<use transform="matrix(.61566 .78801 -.78801 .61566 98.319 -531.74)" width="744.09448" height="1052.3622" xlinkHref="#a"/>
<use transform="matrix(.60182 .79864 -.79864 .60182 104.79 -540.34)" width="744.09448" height="1052.3622" xlinkHref="#a"/>
<use transform="matrix(.58779 .80902 -.80902 .58779 111.42 -548.83)" width="744.09448" height="1052.3622" xlinkHref="#a"/>
<use transform="matrix(.57358 .81915 -.81915 .57358 118.19 -557.19)" width="744.09448" height="1052.3622" xlinkHref="#a"/>
<use transform="matrix(.55919 .82904 -.82904 .55919 125.1 -565.44)" width="744.09448" height="1052.3622" xlinkHref="#a"/>
<use transform="matrix(.54464 .83867 -.83867 .54464 132.16 -573.57)" width="744.09448" height="1052.3622" xlinkHref="#a"/>
<use transform="matrix(.52992 .84805 -.84805 .52992 139.36 -581.57)" width="744.09448" height="1052.3622" xlinkHref="#a"/>
<use transform="matrix(.51504 .85717 -.85717 .51504 146.7 -589.45)" width="744.09448" height="1052.3622" xlinkHref="#a"/>
<use transform="matrix(.5 .86603 -.86603 .5 154.18 -597.2)" width="744.09448" height="1052.3622" xlinkHref="#a"/>
<use transform="matrix(.48481 .87462 -.87462 .48481 161.78 -604.81)" width="744.09448" height="1052.3622" xlinkHref="#a"/>
<use transform="matrix(.46947 .88295 -.88295 .46947 169.52 -612.29)" width="744.09448" height="1052.3622" xlinkHref="#a"/>
<use transform="matrix(.45399 .89101 -.89101 .45399 177.39 -619.64)" width="744.09448" height="1052.3622" xlinkHref="#a"/>
<use transform="matrix(.43837 .89879 -.89879 .43837 185.39 -626.84)" width="744.09448" height="1052.3622" xlinkHref="#a"/>
<use transform="matrix(.42262 .90631 -.90631 .42262 193.51 -633.91)" width="744.09448" height="1052.3622" xlinkHref="#a"/>
<use transform="matrix(.40674 .91355 -.91355 .40674 201.76 -640.83)" width="744.09448" height="1052.3622" xlinkHref="#a"/>
<use transform="matrix(.39073 .9205 -.9205 .39073 210.12 -647.61)" width="744.09448" height="1052.3622" xlinkHref="#a"/>
<use transform="matrix(.37461 .92718 -.92718 .37461 218.6 -654.24)" width="744.09448" height="1052.3622" xlinkHref="#a"/>
<use transform="matrix(.35837 .93358 -.93358 .35837 227.19 -660.72)" width="744.09448" height="1052.3622" xlinkHref="#a"/>
<use transform="matrix(.34202 .93969 -.93969 .34202 235.9 -667.05)" width="744.09448" height="1052.3622" xlinkHref="#a"/>
<use transform="matrix(.32557 .94552 -.94552 .32557 244.71 -673.23)" width="744.09448" height="1052.3622" xlinkHref="#a"/>
<use transform="matrix(.30902 .95106 -.95106 .30902 253.64 -679.25)" width="744.09448" height="1052.3622" xlinkHref="#a"/>
<use transform="matrix(.29237 .9563 -.9563 .29237 262.66 -685.12)" width="744.09448" height="1052.3622" xlinkHref="#a"/>
<use transform="matrix(.27564 .96126 -.96126 .27564 271.79 -690.83)" width="744.09448" height="1052.3622" xlinkHref="#a"/>
<use transform="matrix(.25882 .96593 -.96593 .25882 281.01 -696.38)" width="744.09448" height="1052.3622" xlinkHref="#a"/>
<use transform="matrix(.24192 .9703 -.9703 .24192 290.33 -701.76)" width="744.09448" height="1052.3622" xlinkHref="#a"/>
<use transform="matrix(.22495 .97437 -.97437 .22495 299.74 -706.99)" width="744.09448" height="1052.3622" xlinkHref="#a"/>
<use transform="matrix(.20791 .97815 -.97815 .20791 309.25 -712.04)" width="744.09448" height="1052.3622" xlinkHref="#a"/>
<use transform="matrix(.19081 .98163 -.98163 .19081 318.84 -716.94)" width="744.09448" height="1052.3622" xlinkHref="#a"/>
<use transform="matrix(.17365 .98481 -.98481 .17365 328.51 -721.66)" width="744.09448" height="1052.3622" xlinkHref="#a"/>
<use transform="matrix(.15643 .98769 -.98769 .15643 338.26 -726.21)" width="744.09448" height="1052.3622" xlinkHref="#a"/>
<use transform="matrix(.13917 .99027 -.99027 .13917 348.1 -730.59)" width="744.09448" height="1052.3622" xlinkHref="#a"/>
<use transform="matrix(.12187 .99255 -.99255 .12187 358 -734.81)" width="744.09448" height="1052.3622" xlinkHref="#a"/>
<use transform="matrix(.10453 .99452 -.99452 .10453 367.98 -738.84)" width="744.09448" height="1052.3622" xlinkHref="#a"/>
<use transform="matrix(.087156 .99619 -.99619 .087156 378.03 -742.7)" width="744.09448" height="1052.3622" xlinkHref="#a"/>
<use transform="matrix(.069756 .99756 -.99756 .069756 388.14 -746.39)" width="744.09448" height="1052.3622" xlinkHref="#a"/>
<use transform="matrix(.052336 .99863 -.99863 .052336 398.32 -749.9)" width="744.09448" height="1052.3622" xlinkHref="#a"/>
<use transform="matrix(.0349 .99939 -.99939 .0349 408.56 -753.23)" width="744.09448" height="1052.3622" xlinkHref="#a"/>
<use transform="matrix(.017452 .99985 -.99985 .017452 418.85 -756.38)" width="744.09448" height="1052.3622" xlinkHref="#a"/>
<use transform="matrix(0 1 -1 0 429.2 -759.35)" width="744.09448" height="1052.3622" xlinkHref="#a"/>
<use transform="matrix(-.017452 .99985 -.99985 -.017452 439.59 -762.14)" width="744.09448" height="1052.3622" xlinkHref="#a"/>
<use transform="matrix(-.0349 .99939 -.99939 -.0349 450.04 -764.75)" width="744.09448" height="1052.3622" xlinkHref="#a"/>
<use transform="matrix(-.052336 .99863 -.99863 -.052336 460.52 -767.18)" width="744.09448" height="1052.3622" xlinkHref="#a"/>
<use transform="matrix(-.069756 .99756 -.99756 -.069756 471.05 -769.42)" width="744.09448" height="1052.3622" xlinkHref="#a"/>
<use transform="matrix(-.087156 .99619 -.99619 -.087156 481.62 -771.48)" width="744.09448" height="1052.3622" xlinkHref="#a"/>
<use transform="matrix(-.10453 .99452 -.99452 -.10453 492.22 -773.35)" width="744.09448" height="1052.3622" xlinkHref="#a"/>
<use transform="matrix(-.12187 .99255 -.99255 -.12187 502.85 -775.04)" width="744.09448" height="1052.3622" xlinkHref="#a"/>
<use transform="matrix(-.13917 .99027 -.99027 -.13917 513.51 -776.54)" width="744.09448" height="1052.3622" xlinkHref="#a"/>
<use transform="matrix(-.15643 .98769 -.98769 -.15643 524.19 -777.86)" width="744.09448" height="1052.3622" xlinkHref="#a"/>
<use transform="matrix(-.17365 .98481 -.98481 -.17365 534.9 -778.99)" width="744.09448" height="1052.3622" xlinkHref="#a"/>
<use transform="matrix(-.19081 .98163 -.98163 -.19081 545.62 -779.93)" width="744.09448" height="1052.3622" xlinkHref="#a"/>
<use transform="matrix(-.20791 .97815 -.97815 -.20791 556.36 -780.69)" width="744.09448" height="1052.3622" xlinkHref="#a"/>
<use transform="matrix(-.22495 .97437 -.97437 -.22495 567.11 -781.26)" width="744.09448" height="1052.3622" xlinkHref="#a"/>
<use transform="matrix(-.24192 .9703 -.9703 -.24192 577.87 -781.64)" width="744.09448" height="1052.3622" xlinkHref="#a"/>
<use transform="matrix(-.25882 .96593 -.96593 -.25882 588.63 -781.83)" width="744.09448" height="1052.3622" xlinkHref="#a"/>
<use transform="matrix(-.27564 .96126 -.96126 -.27564 599.4 -781.83)" width="744.09448" height="1052.3622" xlinkHref="#a"/>
<use transform="matrix(-.29237 .9563 -.9563 -.29237 610.16 -781.65)" width="744.09448" height="1052.3622" xlinkHref="#a"/>
<use transform="matrix(-.30902 .95106 -.95106 -.30902 620.92 -781.28)" width="744.09448" height="1052.3622" xlinkHref="#a"/>
<use transform="matrix(-.32557 .94552 -.94552 -.32557 631.67 -780.72)" width="744.09448" height="1052.3622" xlinkHref="#a"/>
<use transform="matrix(-.34202 .93969 -.93969 -.34202 642.41 -779.97)" width="744.09448" height="1052.3622" xlinkHref="#a"/>
<use transform="matrix(-.35837 .93358 -.93358 -.35837 653.13 -779.04)" width="744.09448" height="1052.3622" xlinkHref="#a"/>
<use transform="matrix(-.37461 .92718 -.92718 -.37461 663.84 -777.92)" width="744.09448" height="1052.3622" xlinkHref="#a"/>
<use transform="matrix(-.39073 .9205 -.9205 -.39073 674.52 -776.61)" width="744.09448" height="1052.3622" xlinkHref="#a"/>
<use transform="matrix(-.40674 .91355 -.91355 -.40674 685.18 -775.12)" width="744.09448" height="1052.3622" xlinkHref="#a"/>
<use transform="matrix(-.42262 .90631 -.90631 -.42262 695.81 -773.44)" width="744.09448" height="1052.3622" xlinkHref="#a"/>
<use transform="matrix(-.43837 .89879 -.89879 -.43837 706.42 -771.57)" width="744.09448" height="1052.3622" xlinkHref="#a"/>
<use transform="matrix(-.45399 .89101 -.89101 -.45399 716.98 -769.52)" width="744.09448" height="1052.3622" xlinkHref="#a"/>
<use transform="matrix(-.46947 .88295 -.88295 -.46947 727.51 -767.29)" width="744.09448" height="1052.3622" xlinkHref="#a"/>
<use transform="matrix(-.48481 .87462 -.87462 -.48481 738 -764.87)" width="744.09448" height="1052.3622" xlinkHref="#a"/>
<use transform="matrix(-.5 .86603 -.86603 -.5 748.45 -762.27)" width="744.09448" height="1052.3622" xlinkHref="#a"/>
<use transform="matrix(-.51504 .85717 -.85717 -.51504 758.85 -759.49)" width="744.09448" height="1052.3622" xlinkHref="#a"/>
<use transform="matrix(-.52992 .84805 -.84805 -.52992 769.2 -756.53)" width="744.09448" height="1052.3622" xlinkHref="#a"/>
<use transform="matrix(-.54464 .83867 -.83867 -.54464 779.49 -753.39)" width="744.09448" height="1052.3622" xlinkHref="#a"/>
<use transform="matrix(-.55919 .82904 -.82904 -.55919 789.73 -750.06)" width="744.09448" height="1052.3622" xlinkHref="#a"/>
<use transform="matrix(-.57358 .81915 -.81915 -.57358 799.91 -746.56)" width="744.09448" height="1052.3622" xlinkHref="#a"/>
<use transform="matrix(-.58779 .80902 -.80902 -.58779 810.03 -742.89)" width="744.09448" height="1052.3622" xlinkHref="#a"/>
<use transform="matrix(-.60182 .79864 -.79864 -.60182 820.08 -739.03)" width="744.09448" height="1052.3622" xlinkHref="#a"/>
<use transform="matrix(-.61566 .78801 -.78801 -.61566 830.06 -735.01)" width="744.09448" height="1052.3622" xlinkHref="#a"/>
<use transform="matrix(-.62932 .77715 -.77715 -.62932 839.97 -730.8)" width="744.09448" height="1052.3622" xlinkHref="#a"/>
<use transform="matrix(-.64279 .76604 -.76604 -.64279 849.81 -726.43)" width="744.09448" height="1052.3622" xlinkHref="#a"/>
<use transform="matrix(-.65606 .75471 -.75471 -.65606 859.57 -721.88)" width="744.09448" height="1052.3622" xlinkHref="#a"/>
<use transform="matrix(-.66913 .74314 -.74314 -.66913 869.25 -717.17)" width="744.09448" height="1052.3622" xlinkHref="#a"/>
<use transform="matrix(-.682 .73135 -.73135 -.682 878.84 -712.29)" width="744.09448" height="1052.3622" xlinkHref="#a"/>
<use transform="matrix(-.69466 .71934 -.71934 -.69466 888.35 -707.24)" width="744.09448" height="1052.3622" xlinkHref="#a"/>
<use transform="matrix(-.70711 .70711 -.70711 -.70711 897.76 -702.02)" width="744.09448" height="1052.3622" xlinkHref="#a"/>
<use transform="matrix(-.71934 .69466 -.69466 -.71934 907.09 -696.64)" width="744.09448" height="1052.3622" xlinkHref="#a"/>
<use transform="matrix(-.73135 .682 -.682 -.73135 916.32 -691.1)" width="744.09448" height="1052.3622" xlinkHref="#a"/>
<use transform="matrix(-.74314 .66913 -.66913 -.74314 925.45 -685.4)" width="744.09448" height="1052.3622" xlinkHref="#a"/>
<use transform="matrix(-.75471 .65606 -.65606 -.75471 934.48 -679.54)" width="744.09448" height="1052.3622" xlinkHref="#a"/>
<use transform="matrix(-.76604 .64279 -.64279 -.76604 943.41 -673.53)" width="744.09448" height="1052.3622" xlinkHref="#a"/>
<use transform="matrix(-.77715 .62932 -.62932 -.77715 952.23 -667.36)" width="744.09448" height="1052.3622" xlinkHref="#a"/>
<use transform="matrix(-.78801 .61566 -.61566 -.78801 960.94 -661.03)" width="744.09448" height="1052.3622" xlinkHref="#a"/>
<use transform="matrix(-.79864 .60182 -.60182 -.79864 969.54 -654.56)" width="744.09448" height="1052.3622" xlinkHref="#a"/>
<use transform="matrix(-.80902 .58779 -.58779 -.80902 978.02 -647.93)" width="744.09448" height="1052.3622" xlinkHref="#a"/>
<use transform="matrix(-.81915 .57358 -.57358 -.81915 986.39 -641.16)" width="744.09448" height="1052.3622" xlinkHref="#a"/>
<use transform="matrix(-.82904 .55919 -.55919 -.82904 994.64 -634.25)" width="744.09448" height="1052.3622" xlinkHref="#a"/>
<use transform="matrix(-.83867 .54464 -.54464 -.83867 1002.8 -627.19)" width="744.09448" height="1052.3622" xlinkHref="#a"/>
<use transform="matrix(-.84805 .52992 -.52992 -.84805 1010.8 -619.99)" width="744.09448" height="1052.3622" xlinkHref="#a"/>
<use transform="matrix(-.85717 .51504 -.51504 -.85717 1018.6 -612.65)" width="744.09448" height="1052.3622" xlinkHref="#a"/>
<use transform="matrix(-.86603 .5 -.5 -.86603 1026.4 -605.18)" width="744.09448" height="1052.3622" xlinkHref="#a"/>
<use transform="matrix(-.87462 .48481 -.48481 -.87462 1034 -597.57)" width="744.09448" height="1052.3622" xlinkHref="#a"/>
<use transform="matrix(-.88295 .46947 -.46947 -.88295 1041.5 -589.83)" width="744.09448" height="1052.3622" xlinkHref="#a"/>
<use transform="matrix(-.89101 .45399 -.45399 -.89101 1048.8 -581.96)" width="744.09448" height="1052.3622" xlinkHref="#a"/>
<use transform="matrix(-.89879 .43837 -.43837 -.89879 1056 -573.96)" width="744.09448" height="1052.3622" xlinkHref="#a"/>
<use transform="matrix(-.90631 .42262 -.42262 -.90631 1063.1 -565.84)" width="744.09448" height="1052.3622" xlinkHref="#a"/>
<use transform="matrix(-.91355 .40674 -.40674 -.91355 1070 -557.6)" width="744.09448" height="1052.3622" xlinkHref="#a"/>
<use transform="matrix(-.9205 .39073 -.39073 -.9205 1076.8 -549.23)" width="744.09448" height="1052.3622" xlinkHref="#a"/>
<use transform="matrix(-.92718 .37461 -.37461 -.92718 1083.4 -540.75)" width="744.09448" height="1052.3622" xlinkHref="#a"/>
<use transform="matrix(-.93358 .35837 -.35837 -.93358 1089.9 -532.16)" width="744.09448" height="1052.3622" xlinkHref="#a"/>
<use transform="matrix(-.93969 .34202 -.34202 -.93969 1096.3 -523.45)" width="744.09448" height="1052.3622" xlinkHref="#a"/>
<use transform="matrix(-.94552 .32557 -.32557 -.94552 1102.4 -514.64)" width="744.09448" height="1052.3622" xlinkHref="#a"/>
<use transform="matrix(-.95106 .30902 -.30902 -.95106 1108.5 -505.72)" width="744.09448" height="1052.3622" xlinkHref="#a"/>
<use transform="matrix(-.9563 .29237 -.29237 -.9563 1114.3 -496.69)" width="744.09448" height="1052.3622" xlinkHref="#a"/>
<use transform="matrix(-.96126 .27564 -.27564 -.96126 1120 -487.57)" width="744.09448" height="1052.3622" xlinkHref="#a"/>
<use transform="matrix(-.96593 .25882 -.25882 -.96593 1125.6 -478.34)" width="744.09448" height="1052.3622" xlinkHref="#a"/>
<use transform="matrix(-.9703 .24192 -.24192 -.9703 1131 -469.02)" width="744.09448" height="1052.3622" xlinkHref="#a"/>
<use transform="matrix(-.97437 .22495 -.22495 -.97437 1136.2 -459.61)" width="744.09448" height="1052.3622" xlinkHref="#a"/>
<use transform="matrix(-.97815 .20791 -.20791 -.97815 1141.2 -450.11)" width="744.09448" height="1052.3622" xlinkHref="#a"/>
<use transform="matrix(-.98163 .19081 -.19081 -.98163 1146.1 -440.52)" width="744.09448" height="1052.3622" xlinkHref="#a"/>
<use transform="matrix(-.98481 .17365 -.17365 -.98481 1150.9 -430.84)" width="744.09448" height="1052.3622" xlinkHref="#a"/>
<use transform="matrix(-.98769 .15643 -.15643 -.98769 1155.4 -421.09)" width="744.09448" height="1052.3622" xlinkHref="#a"/>
<use transform="matrix(-.99027 .13917 -.13917 -.99027 1159.8 -411.26)" width="744.09448" height="1052.3622" xlinkHref="#a"/>
<use transform="matrix(-.99255 .12187 -.12187 -.99255 1164 -401.35)" width="744.09448" height="1052.3622" xlinkHref="#a"/>
<use transform="matrix(-.99452 .10453 -.10453 -.99452 1168 -391.37)" width="744.09448" height="1052.3622" xlinkHref="#a"/>
<use transform="matrix(-.99619 .087156 -.087156 -.99619 1171.9 -381.32)" width="744.09448" height="1052.3622" xlinkHref="#a"/>
<use transform="matrix(-.99756 .069756 -.069756 -.99756 1175.6 -371.21)" width="744.09448" height="1052.3622" xlinkHref="#a"/>
<use transform="matrix(-.99863 .052336 -.052336 -.99863 1179.1 -361.03)" width="744.09448" height="1052.3622" xlinkHref="#a"/>
<use transform="matrix(-.99939 .0349 -.0349 -.99939 1182.4 -350.8)" width="744.09448" height="1052.3622" xlinkHref="#a"/>
<use transform="matrix(-.99985 .017452 -.017452 -.99985 1185.6 -340.5)" width="744.09448" height="1052.3622" xlinkHref="#a"/>
<use transform="matrix(-1 0 0 -1 1188.5 -330.16)" width="744.09448" height="1052.3622" xlinkHref="#a"/>
<use transform="matrix(-.99985 -.017452 .017452 -.99985 1191.3 -319.76)" width="744.09448" height="1052.3622" xlinkHref="#a"/>
<use transform="matrix(-.99939 -.0349 .0349 -.99939 1193.9 -309.32)" width="744.09448" height="1052.3622" xlinkHref="#a"/>
<use transform="matrix(-.99863 -.052336 .052336 -.99863 1196.4 -298.83)" width="744.09448" height="1052.3622" xlinkHref="#a"/>
<use transform="matrix(-.99756 -.069756 .069756 -.99756 1198.6 -288.3)" width="744.09448" height="1052.3622" xlinkHref="#a"/>
<use transform="matrix(-.99619 -.087156 .087156 -.99619 1200.7 -277.73)" width="744.09448" height="1052.3622" xlinkHref="#a"/>
<use transform="matrix(-.99452 -.10453 .10453 -.99452 1202.5 -267.13)" width="744.09448" height="1052.3622" xlinkHref="#a"/>
<use transform="matrix(-.99255 -.12187 .12187 -.99255 1204.2 -256.5)" width="744.09448" height="1052.3622" xlinkHref="#a"/>
<use transform="matrix(-.99027 -.13917 .13917 -.99027 1205.7 -245.84)" width="744.09448" height="1052.3622" xlinkHref="#a"/>
<use transform="matrix(-.98769 -.15643 .15643 -.98769 1207.1 -235.16)" width="744.09448" height="1052.3622" xlinkHref="#a"/>
<use transform="matrix(-.98481 -.17365 .17365 -.98481 1208.2 -224.45)" width="744.09448" height="1052.3622" xlinkHref="#a"/>
<use transform="matrix(-.98163 -.19081 .19081 -.98163 1209.1 -213.73)" width="744.09448" height="1052.3622" xlinkHref="#a"/>
<use transform="matrix(-.97815 -.20791 .20791 -.97815 1209.9 -202.99)" width="744.09448" height="1052.3622" xlinkHref="#a"/>
<use transform="matrix(-.97437 -.22495 .22495 -.97437 1210.5 -192.24)" width="744.09448" height="1052.3622" xlinkHref="#a"/>
<use transform="matrix(-.9703 -.24192 .24192 -.9703 1210.8 -181.48)" width="744.09448" height="1052.3622" xlinkHref="#a"/>
<use transform="matrix(-.96593 -.25882 .25882 -.96593 1211 -170.72)" width="744.09448" height="1052.3622" xlinkHref="#a"/>
<use transform="matrix(-.96126 -.27564 .27564 -.96126 1211 -159.96)" width="744.09448" height="1052.3622" xlinkHref="#a"/>
<use transform="matrix(-.9563 -.29237 .29237 -.9563 1210.8 -149.19)" width="744.09448" height="1052.3622" xlinkHref="#a"/>
<use transform="matrix(-.95106 -.30902 .30902 -.95106 1210.5 -138.44)" width="744.09448" height="1052.3622" xlinkHref="#a"/>
<use transform="matrix(-.94552 -.32557 .32557 -.94552 1209.9 -127.69)" width="744.09448" height="1052.3622" xlinkHref="#a"/>
<use transform="matrix(-.93969 -.34202 .34202 -.93969 1209.2 -116.95)" width="744.09448" height="1052.3622" xlinkHref="#a"/>
<use transform="matrix(-.93358 -.35837 .35837 -.93358 1208.2 -106.22)" width="744.09448" height="1052.3622" xlinkHref="#a"/>
<use transform="matrix(-.92718 -.37461 .37461 -.92718 1207.1 -95.516)" width="744.09448" height="1052.3622" xlinkHref="#a"/>
<use transform="matrix(-.9205 -.39073 .39073 -.9205 1205.8 -84.831)" width="744.09448" height="1052.3622" xlinkHref="#a"/>
<use transform="matrix(-.91355 -.40674 .40674 -.91355 1204.3 -74.171)" width="744.09448" height="1052.3622" xlinkHref="#a"/>
<use transform="matrix(-.90631 -.42262 .42262 -.90631 1202.6 -63.538)" width="744.09448" height="1052.3622" xlinkHref="#a"/>
<use transform="matrix(-.89879 -.43837 .43837 -.89879 1200.8 -52.936)" width="744.09448" height="1052.3622" xlinkHref="#a"/>
<use transform="matrix(-.89101 -.45399 .45399 -.89101 1198.7 -42.369)" width="744.09448" height="1052.3622" xlinkHref="#a"/>
<use transform="matrix(-.88295 -.46947 .46947 -.88295 1196.5 -31.838)" width="744.09448" height="1052.3622" xlinkHref="#a"/>
<use transform="matrix(-.87462 -.48481 .48481 -.87462 1194.1 -21.348)" width="744.09448" height="1052.3622" xlinkHref="#a"/>
<use transform="matrix(-.86603 -.5 .5 -.86603 1191.5 -10.902)" width="744.09448" height="1052.3622" xlinkHref="#a"/>
<use transform="matrix(-.85717 -.51504 .51504 -.85717 1188.7 -.50338)" width="744.09448" height="1052.3622" xlinkHref="#a"/>
<use transform="matrix(-.84805 -.52992 .52992 -.84805 1185.7 9.8455)" width="744.09448" height="1052.3622" xlinkHref="#a"/>
<use transform="matrix(-.83867 -.54464 .54464 -.83867 1182.6 20.141)" width="744.09448" height="1052.3622" xlinkHref="#a"/>
<use transform="matrix(-.82904 -.55919 .55919 -.82904 1179.3 30.38)" width="744.09448" height="1052.3622" xlinkHref="#a"/>
<use transform="matrix(-.81915 -.57358 .57358 -.81915 1175.8 40.56)" width="744.09448" height="1052.3622" xlinkHref="#a"/>
<use transform="matrix(-.80902 -.58779 .58779 -.80902 1172.1 50.677)" width="744.09448" height="1052.3622" xlinkHref="#a"/>
<use transform="matrix(-.79864 -.60182 .60182 -.79864 1168.2 60.728)" width="744.09448" height="1052.3622" xlinkHref="#a"/>
<use transform="matrix(-.78801 -.61566 .61566 -.78801 1164.2 70.711)" width="744.09448" height="1052.3622" xlinkHref="#a"/>
<use transform="matrix(-.77715 -.62932 .62932 -.77715 1160 80.621)" width="744.09448" height="1052.3622" xlinkHref="#a"/>
<use transform="matrix(-.76604 -.64279 .64279 -.76604 1155.6 90.457)" width="744.09448" height="1052.3622" xlinkHref="#a"/>
<use transform="matrix(-.75471 -.65606 .65606 -.75471 1151.1 100.22)" width="744.09448" height="1052.3622" xlinkHref="#a"/>
<use transform="matrix(-.74314 -.66913 .66913 -.74314 1146.4 109.89)" width="744.09448" height="1052.3622" xlinkHref="#a"/>
<use transform="matrix(-.73135 -.682 .682 -.73135 1141.5 119.49)" width="744.09448" height="1052.3622" xlinkHref="#a"/>
<use transform="matrix(-.71934 -.69466 .69466 -.71934 1136.4 128.99)" width="744.09448" height="1052.3622" xlinkHref="#a"/>
<use transform="matrix(-.70711 -.70711 .70711 -.70711 1131.2 138.41)" width="744.09448" height="1052.3622" xlinkHref="#a"/>
<use transform="matrix(-.69466 -.71934 .71934 -.69466 1125.8 147.73)" width="744.09448" height="1052.3622" xlinkHref="#a"/>
<use transform="matrix(-.682 -.73135 .73135 -.682 1120.3 156.96)" width="744.09448" height="1052.3622" xlinkHref="#a"/>
<use transform="matrix(-.66913 -.74314 .74314 -.66913 1114.6 166.1)" width="744.09448" height="1052.3622" xlinkHref="#a"/>
<use transform="matrix(-.65606 -.75471 .75471 -.65606 1108.7 175.13)" width="744.09448" height="1052.3622" xlinkHref="#a"/>
<use transform="matrix(-.64279 -.76604 .76604 -.64279 1102.7 184.05)" width="744.09448" height="1052.3622" xlinkHref="#a"/>
<use transform="matrix(-.62932 -.77715 .77715 -.62932 1096.6 192.87)" width="744.09448" height="1052.3622" xlinkHref="#a"/>
<use transform="matrix(-.61566 -.78801 .78801 -.61566 1090.2 201.58)" width="744.09448" height="1052.3622" xlinkHref="#a"/>
<use transform="matrix(-.60182 -.79864 .79864 -.60182 1083.8 210.18)" width="744.09448" height="1052.3622" xlinkHref="#a"/>
<use transform="matrix(-.58779 -.80902 .80902 -.58779 1077.1 218.67)" width="744.09448" height="1052.3622" xlinkHref="#a"/>
<use transform="matrix(-.57358 -.81915 .81915 -.57358 1070.4 227.04)" width="744.09448" height="1052.3622" xlinkHref="#a"/>
<use transform="matrix(-.55919 -.82904 .82904 -.55919 1063.4 235.29)" width="744.09448" height="1052.3622" xlinkHref="#a"/>
<use transform="matrix(-.54464 -.83867 .83867 -.54464 1056.4 243.41)" width="744.09448" height="1052.3622" xlinkHref="#a"/>
<use transform="matrix(-.52992 -.84805 .84805 -.52992 1049.2 251.42)" width="744.09448" height="1052.3622" xlinkHref="#a"/>
<use transform="matrix(-.51504 -.85717 .85717 -.51504 1041.8 259.29)" width="744.09448" height="1052.3622" xlinkHref="#a"/>
<use transform="matrix(-.5 -.86603 .86603 -.5 1034.4 267.04)" width="744.09448" height="1052.3622" xlinkHref="#a"/>
<use transform="matrix(-.48481 -.87462 .87462 -.48481 1026.8 274.65)" width="744.09448" height="1052.3622" xlinkHref="#a"/>
<use transform="matrix(-.46947 -.88295 .88295 -.46947 1019 282.14)" width="744.09448" height="1052.3622" xlinkHref="#a"/>
<use transform="matrix(-.45399 -.89101 .89101 -.45399 1011.2 289.48)" width="744.09448" height="1052.3622" xlinkHref="#a"/>
<use transform="matrix(-.43837 -.89879 .89879 -.43837 1003.2 296.69)" width="744.09448" height="1052.3622" xlinkHref="#a"/>
<use transform="matrix(-.42262 -.90631 .90631 -.42262 995.04 303.75)" width="744.09448" height="1052.3622" xlinkHref="#a"/>
<use transform="matrix(-.40674 -.91355 .91355 -.40674 986.79 310.68)" width="744.09448" height="1052.3622" xlinkHref="#a"/>
<use transform="matrix(-.39073 -.9205 .9205 -.39073 978.43 317.45)" width="744.09448" height="1052.3622" xlinkHref="#a"/>
<use transform="matrix(-.37461 -.92718 .92718 -.37461 969.95 324.08)" width="744.09448" height="1052.3622" xlinkHref="#a"/>
<use transform="matrix(-.35837 -.93358 .93358 -.35837 961.36 330.57)" width="744.09448" height="1052.3622" xlinkHref="#a"/>
<use transform="matrix(-.34202 -.93969 .93969 -.34202 952.65 336.9)" width="744.09448" height="1052.3622" xlinkHref="#a"/>
<use transform="matrix(-.32557 -.94552 .94552 -.32557 943.84 343.08)" width="744.09448" height="1052.3622" xlinkHref="#a"/>
<use transform="matrix(-.30902 -.95106 .95106 -.30902 934.91 349.1)" width="744.09448" height="1052.3622" xlinkHref="#a"/>
<use transform="matrix(-.29237 -.9563 .9563 -.29237 925.89 354.97)" width="744.09448" height="1052.3622" xlinkHref="#a"/>
<use transform="matrix(-.27564 -.96126 .96126 -.27564 916.76 360.67)" width="744.09448" height="1052.3622" xlinkHref="#a"/>
<use transform="matrix(-.25882 -.96593 .96593 -.25882 907.54 366.22)" width="744.09448" height="1052.3622" xlinkHref="#a"/>
<use transform="matrix(-.24192 -.9703 .9703 -.24192 898.22 371.61)" width="744.09448" height="1052.3622" xlinkHref="#a"/>
<use transform="matrix(-.22495 -.97437 .97437 -.22495 888.8 376.83)" width="744.09448" height="1052.3622" xlinkHref="#a"/>
<use transform="matrix(-.20791 -.97815 .97815 -.20791 879.3 381.89)" width="744.09448" height="1052.3622" xlinkHref="#a"/>
<use transform="matrix(-.19081 -.98163 .98163 -.19081 869.71 386.78)" width="744.09448" height="1052.3622" xlinkHref="#a"/>
<use transform="matrix(-.17365 -.98481 .98481 -.17365 860.04 391.5)" width="744.09448" height="1052.3622" xlinkHref="#a"/>
<use transform="matrix(-.15643 -.98769 .98769 -.15643 850.29 396.06)" width="744.09448" height="1052.3622" xlinkHref="#a"/>
<use transform="matrix(-.13917 -.99027 .99027 -.13917 840.45 400.44)" width="744.09448" height="1052.3622" xlinkHref="#a"/>
<use transform="matrix(-.12187 -.99255 .99255 -.12187 830.55 404.65)" width="744.09448" height="1052.3622" xlinkHref="#a"/>
<use transform="matrix(-.10453 -.99452 .99452 -.10453 820.57 408.69)" width="744.09448" height="1052.3622" xlinkHref="#a"/>
<use transform="matrix(-.087156 -.99619 .99619 -.087156 810.52 412.55)" width="744.09448" height="1052.3622" xlinkHref="#a"/>
<use transform="matrix(-.069756 -.99756 .99756 -.069756 800.41 416.23)" width="744.09448" height="1052.3622" xlinkHref="#a"/>
<use transform="matrix(-.052336 -.99863 .99863 -.052336 790.23 419.74)" width="744.09448" height="1052.3622" xlinkHref="#a"/>
<use transform="matrix(-.0349 -.99939 .99939 -.0349 779.99 423.07)" width="744.09448" height="1052.3622" xlinkHref="#a"/>
<use transform="matrix(-.017452 -.99985 .99985 -.017452 769.7 426.23)" width="744.09448" height="1052.3622" xlinkHref="#a"/>
<use transform="matrix(0 -1 1 0 759.35 429.2)" width="744.09448" height="1052.3622" xlinkHref="#a"/>
<use transform="matrix(.017452 -.99985 .99985 .017452 748.96 431.99)" width="744.09448" height="1052.3622" xlinkHref="#a"/>
<use transform="matrix(.0349 -.99939 .99939 .0349 738.51 434.6)" width="744.09448" height="1052.3622" xlinkHref="#a"/>
<use transform="matrix(.052336 -.99863 .99863 .052336 728.02 437.02)" width="744.09448" height="1052.3622" xlinkHref="#a"/>
<use transform="matrix(.069756 -.99756 .99756 .069756 717.5 439.26)" width="744.09448" height="1052.3622" xlinkHref="#a"/>
<use transform="matrix(.087156 -.99619 .99619 .087156 706.93 441.32)" width="744.09448" height="1052.3622" xlinkHref="#a"/>
<use transform="matrix(.10453 -.99452 .99452 .10453 696.33 443.2)" width="744.09448" height="1052.3622" xlinkHref="#a"/>
<use transform="matrix(.12187 -.99255 .99255 .12187 685.7 444.89)" width="744.09448" height="1052.3622" xlinkHref="#a"/>
<use transform="matrix(.13917 -.99027 .99027 .13917 675.04 446.39)" width="744.09448" height="1052.3622" xlinkHref="#a"/>
<use transform="matrix(.15643 -.98769 .98769 .15643 664.36 447.7)" width="744.09448" height="1052.3622" xlinkHref="#a"/>
<use transform="matrix(.17365 -.98481 .98481 .17365 653.65 448.83)" width="744.09448" height="1052.3622" xlinkHref="#a"/>
<use transform="matrix(.19081 -.98163 .98163 .19081 642.93 449.78)" width="744.09448" height="1052.3622" xlinkHref="#a"/>
<use transform="matrix(.20791 -.97815 .97815 .20791 632.19 450.53)" width="744.09448" height="1052.3622" xlinkHref="#a"/>
<use transform="matrix(.22495 -.97437 .97437 .22495 621.44 451.1)" width="744.09448" height="1052.3622" xlinkHref="#a"/>
<use transform="matrix(.24192 -.9703 .9703 .24192 610.68 451.48)" width="744.09448" height="1052.3622" xlinkHref="#a"/>
<use transform="matrix(.25882 -.96593 .96593 .25882 599.92 451.67)" width="744.09448" height="1052.3622" xlinkHref="#a"/>
<use transform="matrix(.27564 -.96126 .96126 .27564 589.15 451.68)" width="744.09448" height="1052.3622" xlinkHref="#a"/>
<use transform="matrix(.29237 -.9563 .9563 .29237 578.39 451.49)" width="744.09448" height="1052.3622" xlinkHref="#a"/>
<use transform="matrix(.30902 -.95106 .95106 .30902 567.63 451.12)" width="744.09448" height="1052.3622" xlinkHref="#a"/>
<use transform="matrix(.32557 -.94552 .94552 .32557 556.88 450.56)" width="744.09448" height="1052.3622" xlinkHref="#a"/>
<use transform="matrix(.34202 -.93969 .93969 .34202 546.14 449.82)" width="744.09448" height="1052.3622" xlinkHref="#a"/>
<use transform="matrix(.35837 -.93358 .93358 .35837 535.42 448.88)" width="744.09448" height="1052.3622" xlinkHref="#a"/>
<use transform="matrix(.37461 -.92718 .92718 .37461 524.71 447.76)" width="744.09448" height="1052.3622" xlinkHref="#a"/>
<use transform="matrix(.39073 -.9205 .9205 .39073 514.03 446.46)" width="744.09448" height="1052.3622" xlinkHref="#a"/>
<use transform="matrix(.40674 -.91355 .91355 .40674 503.37 444.96)" width="744.09448" height="1052.3622" xlinkHref="#a"/>
<use transform="matrix(.42262 -.90631 .90631 .42262 492.73 443.28)" width="744.09448" height="1052.3622" xlinkHref="#a"/>
<use transform="matrix(.43837 -.89879 .89879 .43837 482.13 441.42)" width="744.09448" height="1052.3622" xlinkHref="#a"/>
<use transform="matrix(.45399 -.89101 .89101 .45399 471.57 439.37)" width="744.09448" height="1052.3622" xlinkHref="#a"/>
<use transform="matrix(.46947 -.88295 .88295 .46947 461.03 437.13)" width="744.09448" height="1052.3622" xlinkHref="#a"/>
<use transform="matrix(.48481 -.87462 .87462 .48481 450.55 434.72)" width="744.09448" height="1052.3622" xlinkHref="#a"/>
<use transform="matrix(.5 -.86603 .86603 .5 440.1 432.12)" width="744.09448" height="1052.3622" xlinkHref="#a"/>
<use transform="matrix(.51504 -.85717 .85717 .51504 429.7 429.34)" width="744.09448" height="1052.3622" xlinkHref="#a"/>
<use transform="matrix(.52992 -.84805 .84805 .52992 419.35 426.37)" width="744.09448" height="1052.3622" xlinkHref="#a"/>
<use transform="matrix(.54464 -.83867 .83867 .54464 409.06 423.23)" width="744.09448" height="1052.3622" xlinkHref="#a"/>
<use transform="matrix(.55919 -.82904 .82904 .55919 398.82 419.91)" width="744.09448" height="1052.3622" xlinkHref="#a"/>
<use transform="matrix(.57358 -.81915 .81915 .57358 388.64 416.41)" width="744.09448" height="1052.3622" xlinkHref="#a"/>
<use transform="matrix(.58779 -.80902 .80902 .58779 378.52 412.73)" width="744.09448" height="1052.3622" xlinkHref="#a"/>
<use transform="matrix(.60182 -.79864 .79864 .60182 368.47 408.88)" width="744.09448" height="1052.3622" xlinkHref="#a"/>
<use transform="matrix(.61566 -.78801 .78801 .61566 358.49 404.85)" width="744.09448" height="1052.3622" xlinkHref="#a"/>
<use transform="matrix(.62932 -.77715 .77715 .62932 348.58 400.65)" width="744.09448" height="1052.3622" xlinkHref="#a"/>
<use transform="matrix(.64279 -.76604 .76604 .64279 338.74 396.27)" width="744.09448" height="1052.3622" xlinkHref="#a"/>
<use transform="matrix(.65606 -.75471 .75471 .65606 328.98 391.73)" width="744.09448" height="1052.3622" xlinkHref="#a"/>
<use transform="matrix(.66913 -.74314 .74314 .66913 319.3 387.01)" width="744.09448" height="1052.3622" xlinkHref="#a"/>
<use transform="matrix(.682 -.73135 .73135 .682 309.71 382.13)" width="744.09448" height="1052.3622" xlinkHref="#a"/>
<use transform="matrix(.69466 -.71934 .71934 .69466 300.2 377.08)" width="744.09448" height="1052.3622" xlinkHref="#a"/>
<use transform="matrix(.70711 -.70711 .70711 .70711 290.79 371.87)" width="744.09448" height="1052.3622" xlinkHref="#a"/>
<use transform="matrix(.71934 -.69466 .69466 .71934 281.46 366.49)" width="744.09448" height="1052.3622" xlinkHref="#a"/>
<use transform="matrix(.73135 -.682 .682 .73135 272.23 360.95)" width="744.09448" height="1052.3622" xlinkHref="#a"/>
<use transform="matrix(.74314 -.66913 .66913 .74314 263.1 355.25)" width="744.09448" height="1052.3622" xlinkHref="#a"/>
<use transform="matrix(.75471 -.65606 .65606 .75471 254.07 349.39)" width="744.09448" height="1052.3622" xlinkHref="#a"/>
<use transform="matrix(.76604 -.64279 .64279 .76604 245.14 343.37)" width="744.09448" height="1052.3622" xlinkHref="#a"/>
<use transform="matrix(.77715 -.62932 .62932 .77715 236.32 337.2)" width="744.09448" height="1052.3622" xlinkHref="#a"/>
<use transform="matrix(.78801 -.61566 .61566 .78801 227.61 330.88)" width="744.09448" height="1052.3622" xlinkHref="#a"/>
<use transform="matrix(.79864 -.60182 .60182 .79864 219.01 324.4)" width="744.09448" height="1052.3622" xlinkHref="#a"/>
<use transform="matrix(.80902 -.58779 .58779 .80902 210.53 317.78)" width="744.09448" height="1052.3622" xlinkHref="#a"/>
<use transform="matrix(.81915 -.57358 .57358 .81915 202.16 311.01)" width="744.09448" height="1052.3622" xlinkHref="#a"/>
<use transform="matrix(.82904 -.55919 .55919 .82904 193.91 304.09)" width="744.09448" height="1052.3622" xlinkHref="#a"/>
<use transform="matrix(.83867 -.54464 .54464 .83867 185.78 297.03)" width="744.09448" height="1052.3622" xlinkHref="#a"/>
<use transform="matrix(.84805 -.52992 .52992 .84805 177.78 289.83)" width="744.09448" height="1052.3622" xlinkHref="#a"/>
<use transform="matrix(.85717 -.51504 .51504 .85717 169.9 282.5)" width="744.09448" height="1052.3622" xlinkHref="#a"/>
<use transform="matrix(.86603 -.5 .5 .86603 162.16 275.02)" width="744.09448" height="1052.3622" xlinkHref="#a"/>
<use transform="matrix(.87462 -.48481 .48481 .87462 154.54 267.41)" width="744.09448" height="1052.3622" xlinkHref="#a"/>
<use transform="matrix(.88295 -.46947 .46947 .88295 147.06 259.67)" width="744.09448" height="1052.3622" xlinkHref="#a"/>
<use transform="matrix(.89101 -.45399 .45399 .89101 139.72 251.8)" width="744.09448" height="1052.3622" xlinkHref="#a"/>
<use transform="matrix(.89879 -.43837 .43837 .89879 132.51 243.81)" width="744.09448" height="1052.3622" xlinkHref="#a"/>
<use transform="matrix(.90631 -.42262 .42262 .90631 125.44 235.68)" width="744.09448" height="1052.3622" xlinkHref="#a"/>
<use transform="matrix(.91355 -.40674 .40674 .91355 118.52 227.44)" width="744.09448" height="1052.3622" xlinkHref="#a"/>
<use transform="matrix(.9205 -.39073 .39073 .9205 111.74 219.08)" width="744.09448" height="1052.3622" xlinkHref="#a"/>
<use transform="matrix(.92718 -.37461 .37461 .92718 105.11 210.6)" width="744.09448" height="1052.3622" xlinkHref="#a"/>
<use transform="matrix(.93358 -.35837 .35837 .93358 98.63 202)" width="744.09448" height="1052.3622" xlinkHref="#a"/>
<use transform="matrix(.93969 -.34202 .34202 .93969 92.299 193.3)" width="744.09448" height="1052.3622" xlinkHref="#a"/>
<use transform="matrix(.94552 -.32557 .32557 .94552 86.121 184.48)" width="744.09448" height="1052.3622" xlinkHref="#a"/>
<use transform="matrix(.95106 -.30902 .30902 .95106 80.098 175.56)" width="744.09448" height="1052.3622" xlinkHref="#a"/>
<use transform="matrix(.9563 -.29237 .29237 .9563 74.231 166.54)" width="744.09448" height="1052.3622" xlinkHref="#a"/>
<use transform="matrix(.96126 -.27564 .27564 .96126 68.523 157.41)" width="744.09448" height="1052.3622" xlinkHref="#a"/>
<use transform="matrix(.96593 -.25882 .25882 .96593 62.975 148.18)" width="744.09448" height="1052.3622" xlinkHref="#a"/>
<use transform="matrix(.9703 -.24192 .24192 .9703 57.588 138.86)" width="744.09448" height="1052.3622" xlinkHref="#a"/>
<use transform="matrix(.97437 -.22495 .22495 .97437 52.366 129.45)" width="744.09448" height="1052.3622" xlinkHref="#a"/>
<use transform="matrix(.97815 -.20791 .20791 .97815 47.308 119.95)" width="744.09448" height="1052.3622" xlinkHref="#a"/>
<use transform="matrix(.98163 -.19081 .19081 .98163 42.417 110.36)" width="744.09448" height="1052.3622" xlinkHref="#a"/>
<use transform="matrix(.98481 -.17365 .17365 .98481 37.694 100.69)" width="744.09448" height="1052.3622" xlinkHref="#a"/>
<use transform="matrix(.98769 -.15643 .15643 .98769 33.14 90.933)" width="744.09448" height="1052.3622" xlinkHref="#a"/>
<use transform="matrix(.99027 -.13917 .13917 .99027 28.758 81.101)" width="744.09448" height="1052.3622" xlinkHref="#a"/>
<use transform="matrix(.99255 -.12187 .12187 .99255 24.548 71.193)" width="744.09448" height="1052.3622" xlinkHref="#a"/>
<use transform="matrix(.99452 -.10453 .10453 .99452 20.511 61.214)" width="744.09448" height="1052.3622" xlinkHref="#a"/>
<use transform="matrix(.99619 -.087156 .087156 .99619 16.649 51.166)" width="744.09448" height="1052.3622" xlinkHref="#a"/>
<use transform="matrix(.99756 -.069756 .069756 .99756 12.963 41.052)" width="744.09448" height="1052.3622" xlinkHref="#a"/>
<use transform="matrix(.99863 -.052336 .052336 .99863 9.4539 30.876)" width="744.09448" height="1052.3622" xlinkHref="#a"/>
<use transform="matrix(.99939 -.0349 .0349 .99939 6.1232 20.639)" width="744.09448" height="1052.3622" xlinkHref="#a"/>
<use transform="matrix(.99985 -.017452 .017452 .99985 2.9715 10.346)" width="744.09448" height="1052.3622" xlinkHref="#a"/>
</g>
<g transform="translate(-282.59 -61.627)" fill="#000000" fontFamily="Sans" fontSize="12px" letterSpacing="0px" textAnchor="center" wordSpacing="0px">
<text x="493.12341" y="176.86237" text-align="center" style="line-height:125%" xmlSpace="preserve"><tspan x="493.12341" y="176.86237">0</tspan></text>
<text x="520.9035" y="179.20212" text-align="center" style="line-height:125%" xmlSpace="preserve"><tspan x="520.9035" y="179.20212">10</tspan></text>
<text x="548.33618" y="186.38535" text-align="center" style="line-height:125%" xmlSpace="preserve"><tspan x="548.33618" y="186.38535">20</tspan></text>
<text x="573.85645" y="198.21591" text-align="center" style="line-height:125%" xmlSpace="preserve"><tspan x="573.85645" y="198.21591">30</tspan></text>
<text x="597.10925" y="214.30486" text-align="center" style="line-height:125%" xmlSpace="preserve"><tspan x="597.10925" y="214.30486">40</tspan></text>
<text x="616.89813" y="234.14113" text-align="center" style="line-height:125%" xmlSpace="preserve"><tspan x="616.89813" y="234.14113">50</tspan></text>
<text x="633.1734" y="257.13007" text-align="center" style="line-height:125%" xmlSpace="preserve"><tspan x="633.1734" y="257.13007">60</tspan></text>
<text x="645.08948" y="282.59375" text-align="center" style="line-height:125%" xmlSpace="preserve"><tspan x="645.08948" y="282.59375">70</tspan></text>
<text x="652.52722" y="309.76135" text-align="center" style="line-height:125%" xmlSpace="preserve"><tspan x="652.52722" y="309.76135">80</tspan></text>
<text x="655.06879" y="337.79016" text-align="center" style="line-height:125%" xmlSpace="preserve"><tspan x="655.06879" y="337.79016">90</tspan></text>
<text x="652.44781" y="365.83398" text-align="center" style="line-height:125%" xmlSpace="preserve"><tspan x="652.44781" y="365.83398">100</tspan></text>
<text x="645.26459" y="393.04694" text-align="center" style="line-height:125%" xmlSpace="preserve"><tspan x="645.26459" y="393.04694">110</tspan></text>
<text x="633.43396" y="418.58475" text-align="center" style="line-height:125%" xmlSpace="preserve"><tspan x="633.43396" y="418.58475">120</tspan></text>
<text x="617.34503" y="441.67352" text-align="center" style="line-height:125%" xmlSpace="preserve"><tspan x="617.34503" y="441.67352">130</tspan></text>
<text x="597.50879" y="461.63232" text-align="center" style="line-height:125%" xmlSpace="preserve"><tspan x="597.50879" y="461.63232">140</tspan></text>
<text x="574.51984" y="477.86362" text-align="center" style="line-height:125%" xmlSpace="preserve"><tspan x="574.51984" y="477.86362">150</tspan></text>
<text x="549.05615" y="489.85291" text-align="center" style="line-height:125%" xmlSpace="preserve"><tspan x="549.05615" y="489.85291">160</tspan></text>
<text x="521.88855" y="497.20575" text-align="center" style="line-height:125%" xmlSpace="preserve"><tspan x="521.88855" y="497.20575">170</tspan></text>
<text x="493.85974" y="499.71799" text-align="center" style="line-height:125%" xmlSpace="preserve"><tspan x="493.85974" y="499.71799">180</tspan></text>
<text x="465.81592" y="497.37823" text-align="center" style="line-height:125%" xmlSpace="preserve"><tspan x="465.81592" y="497.37823">190</tspan></text>
<text x="438.82269" y="490.19501" text-align="center" style="line-height:125%" xmlSpace="preserve"><tspan x="438.82269" y="490.19501">200</tspan></text>
<text x="413.28488" y="478.36441" text-align="center" style="line-height:125%" xmlSpace="preserve"><tspan x="413.28488" y="478.36441">210</tspan></text>
<text x="390.19614" y="462.27548" text-align="center" style="line-height:125%" xmlSpace="preserve"><tspan x="390.19614" y="462.27548">220</tspan></text>
<text x="370.2373" y="442.43921" text-align="center" style="line-height:125%" xmlSpace="preserve"><tspan x="370.2373" y="442.43921">230</tspan></text>
<text x="354.00601" y="419.45029" text-align="center" style="line-height:125%" xmlSpace="preserve"><tspan x="354.00601" y="419.45029">240</tspan></text>
<text x="342.01672" y="393.98657" text-align="center" style="line-height:125%" xmlSpace="preserve"><tspan x="342.01672" y="393.98657">250</tspan></text>
<text x="334.66391" y="366.81897" text-align="center" style="line-height:125%" xmlSpace="preserve"><tspan x="334.66391" y="366.81897">260</tspan></text>
<text x="332.15164" y="338.79016" text-align="center" style="line-height:125%" xmlSpace="preserve"><tspan x="332.15164" y="338.79016">270</tspan></text>
<text x="334.49139" y="310.74637" text-align="center" style="line-height:125%" xmlSpace="preserve"><tspan x="334.49139" y="310.74637">280</tspan></text>
<text x="341.67462" y="283.53342" text-align="center" style="line-height:125%" xmlSpace="preserve"><tspan x="341.67462" y="283.53342">290</tspan></text>
<text x="353.48764" y="257.99561" text-align="center" style="line-height:125%" xmlSpace="preserve"><tspan x="353.48764" y="257.99561">300</tspan></text>
<text x="369.57657" y="234.90685" text-align="center" style="line-height:125%" xmlSpace="preserve"><tspan x="369.57657" y="234.90685">310</tspan></text>
<text x="389.41284" y="214.94804" text-align="center" style="line-height:125%" xmlSpace="preserve"><tspan x="389.41284" y="214.94804">320</tspan></text>
<text x="412.40176" y="198.71674" text-align="center" style="line-height:125%" xmlSpace="preserve"><tspan x="412.40176" y="198.71674">330</tspan></text>
<text x="437.86548" y="186.72745" text-align="center" style="line-height:125%" xmlSpace="preserve"><tspan x="437.86548" y="186.72745">340</tspan></text>
<text x="465.03305" y="179.37462" text-align="center" style="line-height:125%" xmlSpace="preserve"><tspan x="465.03305" y="179.37462">350</tspan></text>
</g>
</g>
</svg>
